<svg width="17" height="16" viewBox="0 0 17 16" fill="none" xmlns="http://www.w3.org/2000/svg">
<g clip-path="url(#clip0_11_9967)">
<path d="M11.9189 0.00012207C12.0991 -0.00676403 12.2133 0.189436 12.1367 0.352661C10.5385 3.74319 15.1484 5.11788 15.1484 10.3507C15.1484 13.2933 12.5624 16.0001 8.79199 16.0001C5.02152 16.0001 1.96484 12.9151 1.96484 9.1095C1.96512 5.39051 6.12473 0.23292 11.9189 0.00012207ZM10.3955 1.46594C5.9971 3.29908 4.1642 6.2316 4.16406 9.5304C4.16406 10.9965 6.50426 12.412 8.73926 12.4122C10.9744 12.4122 12.5947 10.6298 12.5947 9.89661C12.5946 7.69763 11.495 6.23159 9.2959 3.66614C9.07228 3.40527 9.6624 2.19958 10.3955 1.46594Z" fill="#BD5DEE"/>
</g>
<defs>
<clipPath id="clip0_11_9967">
<rect width="16" height="16" fill="white" transform="translate(0.964844)"/>
</clipPath>
</defs>
</svg>
