<svg width="398" height="320" viewBox="0 0 398 320" fill="none" xmlns="http://www.w3.org/2000/svg">
<g opacity="0.24" filter="url(#filter0_f_32_752)">
<rect x="100" y="165" width="198" height="55" rx="27.5" fill="#AA02FF"/>
</g>
<g opacity="0.24" filter="url(#filter1_f_32_752)">
<rect x="171" y="100" width="60" height="65" rx="30" fill="#AA02FF"/>
</g>
<path fill-rule="evenodd" clip-rule="evenodd" d="M209.997 105C210.592 104.977 210.969 105.623 210.715 106.162C205.454 117.323 220.629 121.847 220.629 139.074C220.629 148.761 212.117 157.673 199.704 157.673C187.292 157.673 177.23 147.517 177.23 134.989C177.23 122.746 190.922 105.767 209.997 105ZM204.983 109.826C190.503 115.861 184.47 125.514 184.47 136.374C184.47 141.201 192.174 145.861 199.532 145.861C206.89 145.861 212.223 139.994 212.224 137.58C212.224 130.341 208.604 125.513 201.363 117.067C200.627 116.208 202.57 112.241 204.983 109.826Z" fill="#BD5DEE"/>
<path d="M285.667 186.642L289.77 182.476C294 185.401 296.861 188.368 298.355 191.377L293.305 198.131C292.737 196.469 291.959 195.006 290.97 193.744C290.002 192.481 288.382 191.187 286.109 189.862L285.067 191.282L284.468 202.045C284.405 203.139 285.099 204.275 286.551 205.454C288.003 206.632 289.128 207.39 289.928 207.726L284.689 215.144L274.904 207.537C276.082 206.127 276.693 204.675 276.735 203.181L276.672 191.061C276.609 190.051 275.83 189.041 274.336 188.031L279.102 182.034L285.667 186.642Z" fill="#BD5DEE"/>
<path d="M266.49 215.144L251.371 209.115C251.94 205.959 252.224 202.676 252.224 199.267C252.224 195.838 251.897 192.26 251.245 188.536L262.134 182.129V182.034L262.198 182.066H262.229L274.507 190.872L261.724 204.317C262.587 205.348 263.544 205.917 264.596 206.022C265.648 206.127 266.511 206.18 267.184 206.18C267.879 206.18 268.689 206.148 269.615 206.085C270.562 206.001 271.719 205.938 273.087 205.896C271.972 207.453 270.867 208.999 269.773 210.535C268.678 212.071 267.584 213.607 266.49 215.144ZM261.251 190.556C260.03 190.556 259.42 192.218 259.42 195.543C259.42 197.437 259.736 199.33 260.367 201.224C260.367 201.414 260.398 201.571 260.462 201.698L265.543 196.332C265.901 195.953 266.08 195.575 266.08 195.196C266.08 194.817 265.89 194.333 265.512 193.744C265.154 193.155 264.786 192.671 264.407 192.292C263.081 191.135 262.029 190.556 261.251 190.556Z" fill="#BD5DEE"/>
<path d="M250.586 207.947C246.967 211.945 244.631 214.512 243.579 215.649C242.022 214.47 240.465 213.292 238.908 212.114C237.372 210.914 235.836 209.725 234.3 208.547C235.731 207.305 236.667 206.159 237.109 205.107C237.551 204.054 237.782 203.055 237.803 202.108L237.961 183.013C237.961 181.645 237.898 180.014 237.772 178.12C237.667 176.226 237.204 174.627 236.383 173.323L246.799 167.673C246.231 170.198 245.894 172.818 245.789 175.532C245.705 178.247 245.663 181.003 245.663 183.802L245.536 202.329C245.536 203.907 245.684 204.801 245.978 205.012C246.273 205.222 247.809 206.201 250.586 207.947Z" fill="#BD5DEE"/>
<path d="M219.006 224.044C215.407 224.613 211.715 226.159 207.927 228.684L206.349 226.98C206.98 226.601 207.843 225.317 208.937 223.129C210.052 220.962 210.61 219.005 210.61 217.258L210.704 210.788L206.223 209.02C206.938 207.611 207.717 206.369 208.558 205.296C209.421 204.223 210.157 203.023 210.768 201.698L210.799 195.227C210.799 193.544 210.105 192.208 208.716 191.219C207.348 190.23 206.391 189.546 205.844 189.167L212.914 181.908L218.974 187.431L223.424 181.908C225.045 182.602 226.675 183.844 228.317 185.632C231.873 189.441 233.977 193.418 234.629 197.563C234.713 198.047 234.755 198.51 234.755 198.952C234.755 200.341 234.366 201.466 233.588 202.329L223.109 215.68L218.658 213.913L218.627 215.144C218.627 215.312 218.627 215.543 218.627 215.838C218.627 216.112 218.753 218.847 219.006 224.044ZM218.848 204.412C221.752 205.759 223.708 206.432 224.718 206.432C224.887 206.432 225.034 206.411 225.16 206.369C226.991 205.948 227.906 204.791 227.906 202.897C227.906 202.434 227.854 201.929 227.748 201.382C227.222 198.71 226.276 196.5 224.908 194.754C223.54 193.008 222.078 191.64 220.521 190.651C220.184 191.219 219.858 191.798 219.542 192.387C219.227 192.976 219.069 193.712 219.069 194.596L218.848 204.412Z" fill="#BD5DEE"/>
<path d="M191.147 224.044C187.549 224.613 183.856 226.159 180.069 228.684L178.491 226.98C179.122 226.601 179.984 225.317 181.079 223.129C182.194 220.962 182.752 219.005 182.752 217.258L182.846 210.788L178.364 209.02C179.08 207.611 179.858 206.369 180.7 205.296C181.563 204.223 182.299 203.023 182.909 201.698L182.941 195.227C182.941 193.544 182.247 192.208 180.858 191.219C179.49 190.23 178.533 189.546 177.986 189.167L185.056 181.908L191.116 187.431L195.566 181.908C197.186 182.602 198.817 183.844 200.458 185.632C204.014 189.441 206.119 193.418 206.771 197.563C206.855 198.047 206.897 198.51 206.897 198.952C206.897 200.341 206.508 201.466 205.729 202.329L195.25 215.68L190.8 213.913L190.769 215.144C190.769 215.312 190.769 215.543 190.769 215.838C190.769 216.112 190.895 218.847 191.147 224.044ZM190.989 204.412C193.893 205.759 195.85 206.432 196.86 206.432C197.028 206.432 197.176 206.411 197.302 206.369C199.133 205.948 200.048 204.791 200.048 202.897C200.048 202.434 199.995 201.929 199.89 201.382C199.364 198.71 198.417 196.5 197.05 194.754C195.682 193.008 194.219 191.64 192.662 190.651C192.326 191.219 191.999 191.798 191.684 192.387C191.368 192.976 191.21 193.712 191.21 194.596L190.989 204.412Z" fill="#BD5DEE"/>
<path d="M163.446 188.031L168.212 182.034L175.282 185.348C175.03 186.211 174.756 187.053 174.462 187.873C174.167 188.694 174.02 189.536 174.02 190.398L173.578 203.213C173.578 203.318 173.578 203.413 173.578 203.497C173.578 204.486 173.894 205.307 174.525 205.959C175.156 206.611 175.882 207.106 176.703 207.442L170.39 215.144L163.699 209.746C164.919 208.295 165.529 206.843 165.529 205.391L165.75 191.061C165.75 190.051 164.982 189.041 163.446 188.031ZM164.393 181.75L166.918 169.283L176.292 173.039L164.393 181.75Z" fill="#BD5DEE"/>
<path d="M151.308 186.642L155.411 182.476C159.64 185.401 162.502 188.368 163.996 191.377L158.946 198.131C158.378 196.469 157.599 195.006 156.61 193.744C155.642 192.481 154.022 191.187 151.75 189.862L150.708 191.282L150.108 202.045C150.045 203.139 150.74 204.275 152.192 205.454C153.643 206.632 154.769 207.39 155.569 207.726L150.329 215.144L140.545 207.537C141.723 206.127 142.333 204.675 142.376 203.181L142.312 191.061C142.249 190.051 141.471 189.041 139.977 188.031L144.743 182.034L151.308 186.642Z" fill="#BD5DEE"/>
<path d="M106.944 200.277C107.112 198.321 107.196 196.458 107.196 194.691C107.196 192.923 107.123 191.25 106.975 189.672C106.681 186.39 105.576 183.802 103.661 181.908C108.585 181.676 113.309 180.666 117.833 178.878C113.246 176.584 107.754 175.437 101.357 175.437C101.034 175.437 100.897 175.026 101.156 174.833L110.731 167.673C120.432 169.167 127.628 172.607 132.32 177.994C137.034 183.381 139.569 190.472 139.927 199.267L121.337 215.144C115.537 212.213 108.695 209.765 100.809 207.799C100.449 207.709 100.318 207.265 100.573 206.996L106.944 200.277ZM119.317 179.698C118.664 180.898 118.149 182.055 117.77 183.17C117.391 184.265 117.202 185.317 117.202 186.327C117.202 187.337 117.212 188.62 117.233 190.177C117.275 191.713 117.349 193.165 117.454 194.533C117.56 195.901 117.928 197.51 118.559 199.362C118.117 199.32 117.686 199.299 117.265 199.299C115.14 199.299 113.12 199.73 111.205 200.593C116.255 204.275 120.179 206.117 122.978 206.117C124.135 206.117 125.103 205.79 125.882 205.138C128.259 203.139 129.448 200.256 129.448 196.49C129.448 193.144 128.575 190.009 126.828 187.084C125.082 184.138 122.578 181.676 119.317 179.698Z" fill="#BD5DEE"/>
<defs>
<filter id="filter0_f_32_752" x="0" y="65" width="398" height="255" filterUnits="userSpaceOnUse" color-interpolation-filters="sRGB">
<feFlood flood-opacity="0" result="BackgroundImageFix"/>
<feBlend mode="normal" in="SourceGraphic" in2="BackgroundImageFix" result="shape"/>
<feGaussianBlur stdDeviation="50" result="effect1_foregroundBlur_32_752"/>
</filter>
<filter id="filter1_f_32_752" x="71" y="0" width="260" height="265" filterUnits="userSpaceOnUse" color-interpolation-filters="sRGB">
<feFlood flood-opacity="0" result="BackgroundImageFix"/>
<feBlend mode="normal" in="SourceGraphic" in2="BackgroundImageFix" result="shape"/>
<feGaussianBlur stdDeviation="50" result="effect1_foregroundBlur_32_752"/>
</filter>
</defs>
</svg>
